<svg xmlns="http://www.w3.org/2000/svg" xmlns:xlink="http://www.w3.org/1999/xlink" width="1000" zoomAndPan="magnify" viewBox="0 0 750 749.999995" height="1000" preserveAspectRatio="xMidYMid meet" version="1.0"><defs><clipPath id="20de748d92"><path d="M 0 222 L 743.675781 222 L 743.675781 528 L 0 528 Z M 0 222 " clip-rule="nonzero"/></clipPath></defs><g clip-path="url(#20de748d92)"><path fill="#000000" d="M 731.578125 527.660156 C 726.742188 527.660156 722.179688 524.738281 720.308594 519.964844 C 701.699219 472.363281 673.777344 429.59375 638.921875 393.195312 C 621.449219 409.914062 602.394531 425.332031 581.882812 439.304688 C 506.390625 490.726562 416.941406 518.277344 323.195312 518.972656 C 260.6875 519.464844 200.09375 508.007812 143.121094 484.902344 C 88.109375 462.589844 39.046875 430.535156 -2.691406 389.632812 C -4.988281 387.382812 -6.296875 384.308594 -6.324219 381.097656 C -6.351562 377.878906 -5.097656 374.785156 -2.839844 372.496094 C 38.292969 330.8125 86.832031 297.863281 141.425781 274.566406 C 198.019531 250.417969 258.453125 237.863281 321.042969 237.242188 C 322.050781 237.234375 323.058594 237.230469 324.0625 237.230469 C 416.652344 237.230469 505.304688 263.472656 580.671875 313.207031 C 601.5 326.953125 620.878906 342.183594 638.679688 358.738281 C 673.160156 321.703125 700.554688 278.332031 718.496094 230.214844 C 720.832031 223.953125 727.800781 220.769531 734.054688 223.105469 C 740.316406 225.441406 743.5 232.40625 741.164062 238.664062 C 722.191406 289.542969 693.328125 335.894531 656.054688 375.84375 C 693.730469 415.105469 723.160156 460.820312 742.839844 511.152344 C 745.273438 517.371094 742.203125 524.390625 735.980469 526.820312 C 734.535156 527.390625 733.042969 527.660156 731.578125 527.660156 Z M 23.160156 380.847656 C 103.675781 455.316406 209.636719 495.648438 323.011719 494.78125 C 437.691406 493.929688 544.429688 449.527344 621.523438 376.09375 C 543.359375 303.703125 435.878906 260.652344 321.238281 261.4375 C 207.929688 262.554688 102.5625 304.859375 23.160156 380.847656 Z M 23.160156 380.847656 " fill-opacity="1" fill-rule="nonzero"/></g></svg>